<mxfile host="app.diagrams.net" modified="2023-09-17T14:36:28.663Z" agent="Mozilla/5.0 (Windows NT 10.0; Win64; x64) AppleWebKit/537.36 (KHTML, like Gecko) Chrome/116.0.0.0 Safari/537.36" etag="HR9pqw9lyZeQunI6SKbO" version="21.7.5" type="device">
  <diagram id="R2lEEEUBdFMjLlhIrx00" name="Page-1">
    <mxGraphModel dx="2570" dy="1812" grid="1" gridSize="10" guides="1" tooltips="1" connect="1" arrows="1" fold="1" page="1" pageScale="1" pageWidth="850" pageHeight="1100" math="0" shadow="0" extFonts="Permanent Marker^https://fonts.googleapis.com/css?family=Permanent+Marker">
      <root>
        <mxCell id="0" />
        <mxCell id="1" parent="0" />
        <mxCell id="u1QrB0w_TuFFs2H4JncF-1" value="STUDENT" style="whiteSpace=wrap;html=1;align=center;labelBackgroundColor=none;fillColor=#6a00ff;strokeColor=#3700CC;fontColor=#ffffff;rounded=0;" vertex="1" parent="1">
          <mxGeometry x="120" y="80" width="180" height="100" as="geometry" />
        </mxCell>
        <mxCell id="u1QrB0w_TuFFs2H4JncF-7" style="edgeStyle=orthogonalEdgeStyle;rounded=0;orthogonalLoop=1;jettySize=auto;html=1;entryX=0;entryY=0.75;entryDx=0;entryDy=0;labelBackgroundColor=none;strokeColor=#0B4D6A;fontColor=default;" edge="1" parent="1" source="u1QrB0w_TuFFs2H4JncF-2" target="u1QrB0w_TuFFs2H4JncF-1">
          <mxGeometry relative="1" as="geometry" />
        </mxCell>
        <mxCell id="u1QrB0w_TuFFs2H4JncF-2" value="name" style="ellipse;whiteSpace=wrap;html=1;align=center;labelBackgroundColor=none;fillColor=#09555B;strokeColor=#BAC8D3;fontColor=#EEEEEE;rounded=0;" vertex="1" parent="1">
          <mxGeometry x="20" y="20" width="100" height="40" as="geometry" />
        </mxCell>
        <mxCell id="u1QrB0w_TuFFs2H4JncF-97" style="edgeStyle=orthogonalEdgeStyle;rounded=0;orthogonalLoop=1;jettySize=auto;html=1;fillColor=#dae8fc;gradientColor=#7ea6e0;strokeColor=#6c8ebf;" edge="1" parent="1" source="u1QrB0w_TuFFs2H4JncF-5" target="u1QrB0w_TuFFs2H4JncF-95">
          <mxGeometry relative="1" as="geometry">
            <Array as="points">
              <mxPoint x="410" y="10" />
            </Array>
          </mxGeometry>
        </mxCell>
        <mxCell id="u1QrB0w_TuFFs2H4JncF-5" value="email" style="ellipse;whiteSpace=wrap;html=1;align=center;labelBackgroundColor=none;fillColor=#09555B;strokeColor=#BAC8D3;fontColor=#EEEEEE;rounded=0;" vertex="1" parent="1">
          <mxGeometry x="360" y="-80" width="100" height="40" as="geometry" />
        </mxCell>
        <mxCell id="u1QrB0w_TuFFs2H4JncF-98" style="edgeStyle=orthogonalEdgeStyle;rounded=0;orthogonalLoop=1;jettySize=auto;html=1;fillColor=#dae8fc;gradientColor=#7ea6e0;strokeColor=#6c8ebf;" edge="1" parent="1" source="u1QrB0w_TuFFs2H4JncF-6" target="u1QrB0w_TuFFs2H4JncF-95">
          <mxGeometry relative="1" as="geometry">
            <Array as="points">
              <mxPoint x="220" y="10" />
            </Array>
          </mxGeometry>
        </mxCell>
        <mxCell id="u1QrB0w_TuFFs2H4JncF-6" value="address" style="ellipse;whiteSpace=wrap;html=1;align=center;labelBackgroundColor=none;fillColor=#09555B;strokeColor=#BAC8D3;fontColor=#EEEEEE;rounded=0;" vertex="1" parent="1">
          <mxGeometry x="170" y="-80" width="100" height="40" as="geometry" />
        </mxCell>
        <mxCell id="u1QrB0w_TuFFs2H4JncF-12" style="edgeStyle=orthogonalEdgeStyle;rounded=0;orthogonalLoop=1;jettySize=auto;html=1;labelBackgroundColor=none;strokeColor=#0B4D6A;fontColor=default;" edge="1" parent="1" source="u1QrB0w_TuFFs2H4JncF-10" target="u1QrB0w_TuFFs2H4JncF-1">
          <mxGeometry relative="1" as="geometry">
            <Array as="points">
              <mxPoint x="590" y="160" />
            </Array>
          </mxGeometry>
        </mxCell>
        <mxCell id="u1QrB0w_TuFFs2H4JncF-10" value="phone_number" style="ellipse;shape=doubleEllipse;margin=3;whiteSpace=wrap;html=1;align=center;labelBackgroundColor=none;fillColor=#09555B;strokeColor=#BAC8D3;fontColor=#EEEEEE;rounded=0;" vertex="1" parent="1">
          <mxGeometry x="510" y="10" width="100" height="40" as="geometry" />
        </mxCell>
        <mxCell id="u1QrB0w_TuFFs2H4JncF-13" value="TRACK&lt;br&gt;" style="whiteSpace=wrap;html=1;align=center;labelBackgroundColor=none;fillColor=#6a00ff;strokeColor=#3700CC;fontColor=#ffffff;rounded=0;" vertex="1" parent="1">
          <mxGeometry x="-160" y="340" width="230" height="120" as="geometry" />
        </mxCell>
        <mxCell id="u1QrB0w_TuFFs2H4JncF-14" value="SUBJECT" style="whiteSpace=wrap;html=1;align=center;labelBackgroundColor=none;fillColor=#6a00ff;strokeColor=#3700CC;fontColor=#ffffff;rounded=0;" vertex="1" parent="1">
          <mxGeometry x="510" y="450" width="190" height="90" as="geometry" />
        </mxCell>
        <mxCell id="u1QrB0w_TuFFs2H4JncF-21" style="edgeStyle=orthogonalEdgeStyle;rounded=0;orthogonalLoop=1;jettySize=auto;html=1;labelBackgroundColor=none;strokeColor=#0B4D6A;fontColor=default;" edge="1" parent="1" source="u1QrB0w_TuFFs2H4JncF-16" target="u1QrB0w_TuFFs2H4JncF-14">
          <mxGeometry relative="1" as="geometry" />
        </mxCell>
        <mxCell id="u1QrB0w_TuFFs2H4JncF-16" value="discription" style="ellipse;whiteSpace=wrap;html=1;align=center;labelBackgroundColor=none;fillColor=#09555B;strokeColor=#BAC8D3;fontColor=#EEEEEE;rounded=0;" vertex="1" parent="1">
          <mxGeometry x="555" y="270" width="100" height="40" as="geometry" />
        </mxCell>
        <mxCell id="u1QrB0w_TuFFs2H4JncF-22" style="edgeStyle=orthogonalEdgeStyle;rounded=0;orthogonalLoop=1;jettySize=auto;html=1;entryX=1;entryY=0.75;entryDx=0;entryDy=0;labelBackgroundColor=none;strokeColor=#0B4D6A;fontColor=default;" edge="1" parent="1" source="u1QrB0w_TuFFs2H4JncF-17" target="u1QrB0w_TuFFs2H4JncF-14">
          <mxGeometry relative="1" as="geometry" />
        </mxCell>
        <mxCell id="u1QrB0w_TuFFs2H4JncF-17" value="max_score" style="ellipse;whiteSpace=wrap;html=1;align=center;labelBackgroundColor=none;fillColor=#09555B;strokeColor=#BAC8D3;fontColor=#EEEEEE;rounded=0;" vertex="1" parent="1">
          <mxGeometry x="690" y="280" width="100" height="40" as="geometry" />
        </mxCell>
        <mxCell id="u1QrB0w_TuFFs2H4JncF-20" style="edgeStyle=orthogonalEdgeStyle;rounded=0;orthogonalLoop=1;jettySize=auto;html=1;labelBackgroundColor=none;strokeColor=#0B4D6A;fontColor=default;" edge="1" parent="1" source="u1QrB0w_TuFFs2H4JncF-18" target="u1QrB0w_TuFFs2H4JncF-14">
          <mxGeometry relative="1" as="geometry">
            <Array as="points">
              <mxPoint x="510" y="455" />
            </Array>
          </mxGeometry>
        </mxCell>
        <mxCell id="u1QrB0w_TuFFs2H4JncF-18" value="name" style="ellipse;whiteSpace=wrap;html=1;align=center;labelBackgroundColor=none;fillColor=#09555B;strokeColor=#BAC8D3;fontColor=#EEEEEE;rounded=0;" vertex="1" parent="1">
          <mxGeometry x="455" y="280" width="100" height="40" as="geometry" />
        </mxCell>
        <mxCell id="u1QrB0w_TuFFs2H4JncF-23" value="belongs_to" style="shape=rhombus;perimeter=rhombusPerimeter;whiteSpace=wrap;html=1;align=center;labelBackgroundColor=none;fillColor=#f8cecc;strokeColor=#b85450;rounded=0;gradientColor=#ea6b66;" vertex="1" parent="1">
          <mxGeometry x="170" y="270" width="130" height="60" as="geometry" />
        </mxCell>
        <mxCell id="u1QrB0w_TuFFs2H4JncF-27" style="edgeStyle=orthogonalEdgeStyle;rounded=0;orthogonalLoop=1;jettySize=auto;html=1;entryX=0;entryY=0.75;entryDx=0;entryDy=0;labelBackgroundColor=none;strokeColor=#0B4D6A;fontColor=default;" edge="1" parent="1" source="u1QrB0w_TuFFs2H4JncF-26" target="u1QrB0w_TuFFs2H4JncF-13">
          <mxGeometry relative="1" as="geometry" />
        </mxCell>
        <mxCell id="u1QrB0w_TuFFs2H4JncF-26" value="name" style="ellipse;whiteSpace=wrap;html=1;align=center;labelBackgroundColor=none;fillColor=#09555B;strokeColor=#BAC8D3;fontColor=#EEEEEE;rounded=0;" vertex="1" parent="1">
          <mxGeometry x="-360" y="410" width="100" height="40" as="geometry" />
        </mxCell>
        <mxCell id="u1QrB0w_TuFFs2H4JncF-28" value="owned_by" style="shape=rhombus;perimeter=rhombusPerimeter;whiteSpace=wrap;html=1;align=center;labelBackgroundColor=none;fillColor=#f8cecc;strokeColor=#b85450;rounded=0;gradientColor=#ea6b66;" vertex="1" parent="1">
          <mxGeometry x="190" y="540" width="120" height="60" as="geometry" />
        </mxCell>
        <mxCell id="u1QrB0w_TuFFs2H4JncF-31" value="study" style="shape=rhombus;perimeter=rhombusPerimeter;whiteSpace=wrap;html=1;align=center;labelBackgroundColor=none;fillColor=#f8cecc;strokeColor=#b85450;rounded=0;gradientColor=#ea6b66;" vertex="1" parent="1">
          <mxGeometry x="340" y="260" width="120" height="60" as="geometry" />
        </mxCell>
        <mxCell id="u1QrB0w_TuFFs2H4JncF-90" style="edgeStyle=orthogonalEdgeStyle;rounded=0;orthogonalLoop=1;jettySize=auto;html=1;exitX=0.5;exitY=1;exitDx=0;exitDy=0;fillColor=#1ba1e2;strokeColor=#006EAF;" edge="1" parent="1" source="u1QrB0w_TuFFs2H4JncF-35" target="u1QrB0w_TuFFs2H4JncF-31">
          <mxGeometry relative="1" as="geometry" />
        </mxCell>
        <mxCell id="u1QrB0w_TuFFs2H4JncF-35" value="exam_date" style="ellipse;whiteSpace=wrap;html=1;align=center;labelBackgroundColor=none;fillColor=#09555B;strokeColor=#BAC8D3;fontColor=#EEEEEE;rounded=0;" vertex="1" parent="1">
          <mxGeometry x="350" y="180" width="100" height="40" as="geometry" />
        </mxCell>
        <mxCell id="u1QrB0w_TuFFs2H4JncF-92" style="edgeStyle=orthogonalEdgeStyle;rounded=0;orthogonalLoop=1;jettySize=auto;html=1;entryX=1;entryY=0;entryDx=0;entryDy=0;fillColor=#1ba1e2;strokeColor=#006EAF;" edge="1" parent="1" source="u1QrB0w_TuFFs2H4JncF-36" target="u1QrB0w_TuFFs2H4JncF-31">
          <mxGeometry relative="1" as="geometry" />
        </mxCell>
        <mxCell id="u1QrB0w_TuFFs2H4JncF-36" value="score" style="ellipse;whiteSpace=wrap;html=1;align=center;labelBackgroundColor=none;fillColor=#09555B;strokeColor=#BAC8D3;fontColor=#EEEEEE;rounded=0;" vertex="1" parent="1">
          <mxGeometry x="440" y="200" width="100" height="40" as="geometry" />
        </mxCell>
        <mxCell id="u1QrB0w_TuFFs2H4JncF-53" value="" style="shape=link;html=1;rounded=0;exitX=0.422;exitY=0.98;exitDx=0;exitDy=0;exitPerimeter=0;labelBackgroundColor=none;strokeColor=#0B4D6A;fontColor=default;" edge="1" parent="1" source="u1QrB0w_TuFFs2H4JncF-1" target="u1QrB0w_TuFFs2H4JncF-23">
          <mxGeometry relative="1" as="geometry">
            <mxPoint x="240" y="230" as="sourcePoint" />
            <mxPoint x="230" y="250" as="targetPoint" />
            <Array as="points">
              <mxPoint x="210" y="280" />
            </Array>
          </mxGeometry>
        </mxCell>
        <mxCell id="u1QrB0w_TuFFs2H4JncF-55" value="" style="shape=link;html=1;rounded=0;exitX=0.55;exitY=-0.013;exitDx=0;exitDy=0;exitPerimeter=0;entryX=0.575;entryY=0.933;entryDx=0;entryDy=0;entryPerimeter=0;labelBackgroundColor=none;strokeColor=#0B4D6A;fontColor=default;" edge="1" parent="1" source="u1QrB0w_TuFFs2H4JncF-13" target="u1QrB0w_TuFFs2H4JncF-23">
          <mxGeometry relative="1" as="geometry">
            <mxPoint x="40" y="350" as="sourcePoint" />
            <mxPoint x="200" y="350" as="targetPoint" />
          </mxGeometry>
        </mxCell>
        <mxCell id="u1QrB0w_TuFFs2H4JncF-56" value="1" style="resizable=0;html=1;whiteSpace=wrap;align=right;verticalAlign=bottom;labelBackgroundColor=none;fillColor=#09555B;strokeColor=#BAC8D3;fontColor=#EEEEEE;rounded=0;" connectable="0" vertex="1" parent="u1QrB0w_TuFFs2H4JncF-55">
          <mxGeometry x="1" relative="1" as="geometry" />
        </mxCell>
        <mxCell id="u1QrB0w_TuFFs2H4JncF-57" value="" style="shape=link;html=1;rounded=0;entryX=0;entryY=1;entryDx=0;entryDy=0;exitX=0.304;exitY=1;exitDx=0;exitDy=0;exitPerimeter=0;labelBackgroundColor=none;strokeColor=#0B4D6A;fontColor=default;" edge="1" parent="1" source="u1QrB0w_TuFFs2H4JncF-13" target="u1QrB0w_TuFFs2H4JncF-28">
          <mxGeometry relative="1" as="geometry">
            <mxPoint x="190" y="570" as="sourcePoint" />
            <mxPoint x="350" y="570" as="targetPoint" />
          </mxGeometry>
        </mxCell>
        <mxCell id="u1QrB0w_TuFFs2H4JncF-58" value="N" style="resizable=0;html=1;whiteSpace=wrap;align=right;verticalAlign=bottom;labelBackgroundColor=none;fillColor=#09555B;strokeColor=#BAC8D3;fontColor=#EEEEEE;rounded=0;" connectable="0" vertex="1" parent="u1QrB0w_TuFFs2H4JncF-57">
          <mxGeometry x="1" relative="1" as="geometry" />
        </mxCell>
        <mxCell id="u1QrB0w_TuFFs2H4JncF-59" value="" style="shape=link;html=1;rounded=0;entryX=1;entryY=1;entryDx=0;entryDy=0;width=-9;exitX=0.663;exitY=1.013;exitDx=0;exitDy=0;exitPerimeter=0;labelBackgroundColor=none;strokeColor=#0B4D6A;fontColor=default;" edge="1" parent="1" source="u1QrB0w_TuFFs2H4JncF-14" target="u1QrB0w_TuFFs2H4JncF-28">
          <mxGeometry relative="1" as="geometry">
            <mxPoint x="730" y="750" as="sourcePoint" />
            <mxPoint x="530" y="650" as="targetPoint" />
          </mxGeometry>
        </mxCell>
        <mxCell id="u1QrB0w_TuFFs2H4JncF-60" value="N" style="resizable=0;html=1;whiteSpace=wrap;align=right;verticalAlign=bottom;labelBackgroundColor=none;fillColor=#09555B;strokeColor=#BAC8D3;fontColor=#EEEEEE;rounded=0;" connectable="0" vertex="1" parent="u1QrB0w_TuFFs2H4JncF-59">
          <mxGeometry x="1" relative="1" as="geometry" />
        </mxCell>
        <mxCell id="u1QrB0w_TuFFs2H4JncF-61" value="" style="shape=link;html=1;rounded=0;exitX=0.604;exitY=1.012;exitDx=0;exitDy=0;exitPerimeter=0;labelBackgroundColor=none;strokeColor=#0B4D6A;fontColor=default;" edge="1" parent="1" source="u1QrB0w_TuFFs2H4JncF-1" target="u1QrB0w_TuFFs2H4JncF-31">
          <mxGeometry relative="1" as="geometry">
            <mxPoint x="270" y="250" as="sourcePoint" />
            <mxPoint x="430" y="250" as="targetPoint" />
          </mxGeometry>
        </mxCell>
        <mxCell id="u1QrB0w_TuFFs2H4JncF-62" value="N" style="resizable=0;html=1;whiteSpace=wrap;align=right;verticalAlign=bottom;labelBackgroundColor=none;fillColor=#09555B;strokeColor=#BAC8D3;fontColor=#EEEEEE;rounded=0;" connectable="0" vertex="1" parent="u1QrB0w_TuFFs2H4JncF-61">
          <mxGeometry x="1" relative="1" as="geometry">
            <mxPoint y="15" as="offset" />
          </mxGeometry>
        </mxCell>
        <mxCell id="u1QrB0w_TuFFs2H4JncF-63" value="" style="shape=link;html=1;rounded=0;entryX=0.63;entryY=0.853;entryDx=0;entryDy=0;entryPerimeter=0;exitX=-0.002;exitY=0.373;exitDx=0;exitDy=0;exitPerimeter=0;labelBackgroundColor=none;strokeColor=#0B4D6A;fontColor=default;" edge="1" parent="1" source="u1QrB0w_TuFFs2H4JncF-14" target="u1QrB0w_TuFFs2H4JncF-31">
          <mxGeometry relative="1" as="geometry">
            <mxPoint x="340" y="390" as="sourcePoint" />
            <mxPoint x="500" y="390" as="targetPoint" />
          </mxGeometry>
        </mxCell>
        <mxCell id="u1QrB0w_TuFFs2H4JncF-64" value="N" style="resizable=0;html=1;whiteSpace=wrap;align=right;verticalAlign=bottom;labelBackgroundColor=none;fillColor=#09555B;strokeColor=#BAC8D3;fontColor=#EEEEEE;rounded=0;" connectable="0" vertex="1" parent="u1QrB0w_TuFFs2H4JncF-63">
          <mxGeometry x="1" relative="1" as="geometry" />
        </mxCell>
        <mxCell id="u1QrB0w_TuFFs2H4JncF-88" value="m" style="text;html=1;align=center;verticalAlign=middle;resizable=0;points=[];autosize=1;strokeColor=none;fillColor=none;" vertex="1" parent="1">
          <mxGeometry x="215" y="248" width="30" height="30" as="geometry" />
        </mxCell>
        <mxCell id="u1QrB0w_TuFFs2H4JncF-96" style="edgeStyle=orthogonalEdgeStyle;rounded=0;orthogonalLoop=1;jettySize=auto;html=1;fillColor=#dae8fc;gradientColor=#7ea6e0;strokeColor=#6c8ebf;" edge="1" parent="1" source="u1QrB0w_TuFFs2H4JncF-95" target="u1QrB0w_TuFFs2H4JncF-1">
          <mxGeometry relative="1" as="geometry" />
        </mxCell>
        <mxCell id="u1QrB0w_TuFFs2H4JncF-95" value="contact_info" style="ellipse;whiteSpace=wrap;html=1;align=center;labelBackgroundColor=none;fillColor=#09555B;strokeColor=#BAC8D3;fontColor=#EEEEEE;rounded=0;" vertex="1" parent="1">
          <mxGeometry x="240" y="-10" width="100" height="40" as="geometry" />
        </mxCell>
      </root>
    </mxGraphModel>
  </diagram>
</mxfile>
